<svg xmlns="http://www.w3.org/2000/svg" viewBox="0 0 165.71 35.9"><rect width="32" height="32" fill="#ff7900"/><path d="M10.91,28a.5.5,0,0,0,.5.55,1.5,1.5,0,0,0,1.09-.46V27C11.41,27.17,10.91,27.46,10.91,28Zm1.64.92a2.66,2.66,0,0,1-1.47.42,1.19,1.19,0,0,1-1.3-1.25c0-1,.88-1.55,2.77-1.76v-.21c0-.33-.26-.54-.72-.54a1.3,1.3,0,0,0-1,.54l-.8-.46a2.19,2.19,0,0,1,1.89-.88c1.13,0,1.8.51,1.8,1.34V29.3h-1Z" fill="#fff" fill-rule="evenodd"/><path d="M14.59,25l1-.13.09.55a2.4,2.4,0,0,1,1.52-.64,1.27,1.27,0,0,1,1.4,1.44v3.12H17.38V26.43c0-.55-.12-.76-.55-.76a1.68,1.68,0,0,0-1.1.46v3.21H14.59Z" fill="#fff" fill-rule="evenodd"/><path d="M27.25,26.51a.83.83,0,0,0-.89-.92.87.87,0,0,0-.89.92Zm-.85,2.92a2,2,0,0,1-2.11-2.32c0-1.48.8-2.33,2.07-2.33a2,2,0,0,1,2.07,2.28c0,.09,0,.13,0,.21h-3c0,.85.38,1.27,1.06,1.27a1.1,1.1,0,0,0,1-.55l.85.47A2.14,2.14,0,0,1,26.4,29.43Z" fill="#fff" fill-rule="evenodd"/><path d="M3.94,25.75c-.89,0-1,.79-1,1.33s.13,1.34,1,1.34S5,27.67,5,27.08,4.82,25.75,3.94,25.75Zm0,3.68a2.15,2.15,0,0,1-2.2-2.35,2.11,2.11,0,0,1,2.2-2.3,2.11,2.11,0,0,1,2.19,2.3A2.14,2.14,0,0,1,3.94,29.43Z" fill="#fff" fill-rule="evenodd"/><path d="M7,24.91h1.1v.51a1.73,1.73,0,0,1,1.22-.64c.09,0,.13,0,.17,0v1.09h0c-.51,0-1.1,0-1.27.47v2.95H7Z" fill="#fff" fill-rule="evenodd"/><path d="M23.54,24.87V29.1c0,.72,0,1.94-2.16,2-.88,0-1.69-.33-1.86-1.1l1.15-.21c.08.21.21.43.84.43s.93-.26.93-1v-.5l0,0a1.16,1.16,0,0,1-1.14.68c-1.06,0-1.86-.72-1.86-2.24s.84-2.33,1.77-2.33,1.23.43,1.31.64l.09-.55Zm-2.07,3.51c.89,0,1-.89,1-1.48s-.34-1.27-1-1.27c-.42,0-.89.3-.89,1.31C20.58,27.49,20.62,28.38,21.47,28.38Z" fill="#fff" fill-rule="evenodd"/><path d="M30.75,24.62H30.5V23.38l-.41,1.24h-.17l-.49-1.24h-.09v1.24h-.16V23.21h.33l.5,1.08.41-1.08h.33Zm-1.9-1.24h-.42v1.24h-.25V23.38h-.49v-.17h1.16Z" fill="#fff" fill-rule="evenodd"/><path d="M56.09,14.34a5.66,5.66,0,0,1-4.25-1.51,7,7,0,0,1-2-5.34,6.86,6.86,0,0,1,2-5.35A5.7,5.7,0,0,1,56.09.63a5.7,5.7,0,0,1,4.25,1.51,6.9,6.9,0,0,1,2,5.35,7,7,0,0,1-2,5.34A5.66,5.66,0,0,1,56.09,14.34Zm2.56-3.48a5.34,5.34,0,0,0,.94-3.37,5.28,5.28,0,0,0-1-3.37,3.07,3.07,0,0,0-2.55-1.19,3.14,3.14,0,0,0-2.57,1.18,5.25,5.25,0,0,0-1,3.38,5.22,5.22,0,0,0,1,3.37,3.36,3.36,0,0,0,5.13,0Z" fill="#ff7900"/><path d="M69,6.71a2.09,2.09,0,0,0-2,1,3.88,3.88,0,0,0-.29,1.7V14H64.13V4.4h2.39V6.07a5.66,5.66,0,0,1,1-1.31,2.77,2.77,0,0,1,1.83-.59h.34V6.76l-.43,0Z" fill="#ff7900"/><path d="M71.52,5.44a4.11,4.11,0,0,1,3.41-1.27,6,6,0,0,1,2.8.63A2.39,2.39,0,0,1,79,7.15v4.4c0,.3,0,.67,0,1.1a1.42,1.42,0,0,0,.15.67.79.79,0,0,0,.37.29V14H76.76a3.24,3.24,0,0,1-.16-.54c0-.17,0-.37-.07-.58a5,5,0,0,1-1.19,1,3.51,3.51,0,0,1-1.83.47,3.17,3.17,0,0,1-2.15-.74,2.68,2.68,0,0,1-.85-2.11,2.72,2.72,0,0,1,1.37-2.55,5.87,5.87,0,0,1,2.19-.62l.85-.11a4,4,0,0,0,1-.21.75.75,0,0,0,.53-.72.84.84,0,0,0-.4-.81,2.59,2.59,0,0,0-1.2-.22,1.54,1.54,0,0,0-1.26.44,1.77,1.77,0,0,0-.35.87H70.82A3.71,3.71,0,0,1,71.52,5.44Zm1.87,6.73a1.31,1.31,0,0,0,.86.29A2.6,2.6,0,0,0,75.74,12a2.05,2.05,0,0,0,.71-1.73V9.32a3.67,3.67,0,0,1-.48.25,5.81,5.81,0,0,1-.67.17l-.56.1a3.59,3.59,0,0,0-1.13.35A1.13,1.13,0,0,0,73,11.25,1.09,1.09,0,0,0,73.39,12.17Z" fill="#ff7900"/><path d="M85.68,6.26a1.75,1.75,0,0,0-1.75,1.08,3.77,3.77,0,0,0-.24,1.46V14h-2.5V4.42h2.42v1.4a4.32,4.32,0,0,1,.91-1.07,3.23,3.23,0,0,1,2-.58A3.69,3.69,0,0,1,88.91,5a3.17,3.17,0,0,1,1,2.58V14H87.29V8.15A2.75,2.75,0,0,0,87.09,7,1.43,1.43,0,0,0,85.68,6.26Z" fill="#ff7900"/><path d="M94.88,15.66a2.1,2.1,0,0,0,1.36.34,1.84,1.84,0,0,0,1.81-.9,4.59,4.59,0,0,0,.3-1.95v-.62a2.93,2.93,0,0,1-.78.92,3,3,0,0,1-1.94.58,3.7,3.7,0,0,1-2.95-1.3,5.27,5.27,0,0,1-1.1-3.51,5.9,5.9,0,0,1,1.06-3.59,3.53,3.53,0,0,1,3-1.46,3.46,3.46,0,0,1,1.26.22,3.07,3.07,0,0,1,1.47,1.39V4.4h2.44v9.09a5,5,0,0,1-.63,2.79q-1.07,1.62-4.11,1.62a5.62,5.62,0,0,1-3-.72A2.66,2.66,0,0,1,91.81,15h2.72A1.13,1.13,0,0,0,94.88,15.66Zm-.43-4.95a1.84,1.84,0,0,0,1.83,1.22,2,2,0,0,0,1.49-.67,3.09,3.09,0,0,0,.6-2.11,3.28,3.28,0,0,0-.57-2.08,1.9,1.9,0,0,0-1.54-.71A1.81,1.81,0,0,0,94.44,7.6a4.31,4.31,0,0,0-.27,1.63A3.83,3.83,0,0,0,94.45,10.71Z" fill="#ff7900"/><path d="M111.36,11.17a3.18,3.18,0,0,1-.88,1.73A4.36,4.36,0,0,1,107,14.3a4.82,4.82,0,0,1-3.22-1.18,4.71,4.71,0,0,1-1.4-3.83,5.35,5.35,0,0,1,1.26-3.82,4.32,4.32,0,0,1,3.27-1.32,5,5,0,0,1,2.16.45A3.74,3.74,0,0,1,110.68,6a4.9,4.9,0,0,1,.73,2,13.65,13.65,0,0,1,.08,1.9h-6.56a2.39,2.39,0,0,0,.91,2,2.11,2.11,0,0,0,1.24.36,1.81,1.81,0,0,0,1.26-.44,2.15,2.15,0,0,0,.47-.66Zm-2.47-2.94a2.21,2.21,0,0,0-.61-1.5,1.83,1.83,0,0,0-1.34-.52,1.69,1.69,0,0,0-1.35.55,2.67,2.67,0,0,0-.6,1.47Z" fill="#ff7900"/><path d="M55.94,32H50.36V19h5.58a6.59,6.59,0,0,1,2,.28A4.25,4.25,0,0,1,60.15,21,5.74,5.74,0,0,1,61.07,23a9.73,9.73,0,0,1,.25,2.15,8.59,8.59,0,0,1-1,4.37A4.66,4.66,0,0,1,55.94,32Zm2-9.65a2.63,2.63,0,0,0-2.47-1H53v8.45h2.49a2.71,2.71,0,0,0,2.68-1.89,6.76,6.76,0,0,0,.41-2.47A6.13,6.13,0,0,0,58,22.33Z"/><path d="M65.73,19v2.31H63.19V19Zm0,3.45V32H63.19V22.4Z"/><path d="M70.86,33.66a2.13,2.13,0,0,0,1.37.34A1.84,1.84,0,0,0,74,33.1a4.59,4.59,0,0,0,.3-2v-.62a2.93,2.93,0,0,1-.78.92,3,3,0,0,1-1.94.58,3.7,3.7,0,0,1-3-1.3,5.27,5.27,0,0,1-1.1-3.51,5.9,5.9,0,0,1,1.06-3.59,3.53,3.53,0,0,1,3-1.46,3.37,3.37,0,0,1,1.25.22,3,3,0,0,1,1.48,1.39V22.4h2.43v9.09a5,5,0,0,1-.62,2.79c-.71,1.08-2.09,1.62-4.11,1.62a5.6,5.6,0,0,1-3-.72A2.66,2.66,0,0,1,67.8,33h2.72A1.18,1.18,0,0,0,70.86,33.66Zm-.42-4.95a1.84,1.84,0,0,0,1.83,1.22,2,2,0,0,0,1.49-.67,3.09,3.09,0,0,0,.6-2.11,3.28,3.28,0,0,0-.57-2.08,1.91,1.91,0,0,0-1.55-.71,1.83,1.83,0,0,0-1.82,1.24,4.53,4.53,0,0,0-.26,1.63A3.83,3.83,0,0,0,70.44,28.71Z"/><path d="M81.73,19v2.31H79.19V19Zm0,3.45V32H79.19V22.4Z"/><path d="M88.54,30.2v1.87l-1.19,0a3.18,3.18,0,0,1-2.42-.61,1.85,1.85,0,0,1-.42-1.33v-5.9H83.17V22.49h1.34V19.82H87v2.67h1.56v1.78H87v5.07a1.13,1.13,0,0,0,.15.73,1.62,1.62,0,0,0,.92.15h.49Z"/><path d="M90.51,23.44a4.1,4.1,0,0,1,3.41-1.27,6,6,0,0,1,2.79.63,2.38,2.38,0,0,1,1.22,2.35v4.4c0,.3,0,.67,0,1.1a1.42,1.42,0,0,0,.15.67.85.85,0,0,0,.37.29V32H95.75a2.51,2.51,0,0,1-.16-.54c0-.17,0-.37-.07-.58a5.29,5.29,0,0,1-1.2.95,3.51,3.51,0,0,1-1.83.47,3.15,3.15,0,0,1-2.14-.74,2.65,2.65,0,0,1-.85-2.11,2.72,2.72,0,0,1,1.36-2.55,5.93,5.93,0,0,1,2.2-.62l.85-.11a4,4,0,0,0,1-.21.76.76,0,0,0,.54-.72.85.85,0,0,0-.41-.81,2.54,2.54,0,0,0-1.2-.22,1.55,1.55,0,0,0-1.26.44,1.87,1.87,0,0,0-.35.87H89.8A3.71,3.71,0,0,1,90.51,23.44Zm1.86,6.73a1.33,1.33,0,0,0,.86.29A2.58,2.58,0,0,0,94.72,30a2,2,0,0,0,.71-1.73v-.94a3.67,3.67,0,0,1-.48.25,5.09,5.09,0,0,1-.66.17l-.57.1a3.68,3.68,0,0,0-1.13.35A1.13,1.13,0,0,0,92,29.25,1.09,1.09,0,0,0,92.37,30.17Z"/><path d="M100.21,19h2.51V32h-2.51Z"/><path d="M119.5,31a5.28,5.28,0,0,1-3.71,1.32,5.6,5.6,0,0,1-4.39-1.79,7.16,7.16,0,0,1-1.6-4.94,7.12,7.12,0,0,1,1.82-5.23,5.4,5.4,0,0,1,4-1.6,5.46,5.46,0,0,1,4.79,2.15,4.65,4.65,0,0,1,.89,2.41h-2.7a3.72,3.72,0,0,0-.68-1.4,3,3,0,0,0-4.52.34,5.73,5.73,0,0,0-.85,3.37,5,5,0,0,0,.9,3.27A2.85,2.85,0,0,0,115.76,30a2.62,2.62,0,0,0,2.17-.93,4,4,0,0,0,.69-1.5h2.68A5.9,5.9,0,0,1,119.5,31Z"/><path d="M131.36,29.17a3.14,3.14,0,0,1-.89,1.73A4.35,4.35,0,0,1,127,32.3a4.84,4.84,0,0,1-3.23-1.18,4.74,4.74,0,0,1-1.4-3.83,5.35,5.35,0,0,1,1.26-3.82,4.35,4.35,0,0,1,3.28-1.32,5,5,0,0,1,2.15.45A3.68,3.68,0,0,1,130.67,24a4.76,4.76,0,0,1,.73,2,12.24,12.24,0,0,1,.08,1.9h-6.55a2.36,2.36,0,0,0,.9,2,2.14,2.14,0,0,0,1.25.36,1.84,1.84,0,0,0,1.26-.44,2.14,2.14,0,0,0,.46-.66Zm-2.48-2.94a2.16,2.16,0,0,0-.6-1.5,1.85,1.85,0,0,0-1.34-.52,1.69,1.69,0,0,0-1.35.55,2.67,2.67,0,0,0-.6,1.47Z"/><path d="M137.68,24.26a1.75,1.75,0,0,0-1.75,1.08,3.76,3.76,0,0,0-.25,1.46V32h-2.49V22.42h2.41v1.4a4.32,4.32,0,0,1,.92-1.07,3.21,3.21,0,0,1,2-.58,3.69,3.69,0,0,1,2.43.78,3.17,3.17,0,0,1,.94,2.58V32h-2.56V26.15a2.75,2.75,0,0,0-.2-1.16A1.43,1.43,0,0,0,137.68,24.26Z"/><path d="M148.55,30.2v1.87l-1.19,0a3.18,3.18,0,0,1-2.42-.61,1.85,1.85,0,0,1-.42-1.33v-5.9h-1.34V22.49h1.34V19.82H147v2.67h1.55v1.78H147v5.07a1.22,1.22,0,0,0,.14.73,1.62,1.62,0,0,0,.92.15h.49Z"/><path d="M158.36,29.17a3.14,3.14,0,0,1-.89,1.73A4.35,4.35,0,0,1,154,32.3a4.84,4.84,0,0,1-3.23-1.18,4.74,4.74,0,0,1-1.4-3.83,5.35,5.35,0,0,1,1.26-3.82,4.35,4.35,0,0,1,3.28-1.32,5,5,0,0,1,2.15.45A3.68,3.68,0,0,1,157.67,24a4.76,4.76,0,0,1,.73,2,12.24,12.24,0,0,1,.08,1.9h-6.55a2.36,2.36,0,0,0,.9,2,2.14,2.14,0,0,0,1.25.36,1.84,1.84,0,0,0,1.26-.44,2.14,2.14,0,0,0,.46-.66Zm-2.48-2.94a2.16,2.16,0,0,0-.6-1.5,1.85,1.85,0,0,0-1.34-.52,1.69,1.69,0,0,0-1.35.55,2.67,2.67,0,0,0-.6,1.47Z"/><path d="M165,24.71a2.07,2.07,0,0,0-2,1,3.74,3.74,0,0,0-.29,1.7V32h-2.53V22.4h2.39v1.67a5.38,5.38,0,0,1,1-1.31,2.73,2.73,0,0,1,1.82-.59h.34v2.57l-.42,0Z"/></svg>