<svg xmlns="http://www.w3.org/2000/svg" viewBox="0 0 179.95 17.27"><path d="M6.21,13.71A5.63,5.63,0,0,1,2,12.2,7,7,0,0,1,0,6.86,6.87,6.87,0,0,1,2,1.51,5.63,5.63,0,0,1,6.21,0a5.64,5.64,0,0,1,4.25,1.51,6.86,6.86,0,0,1,2,5.35,7,7,0,0,1-2,5.34A5.64,5.64,0,0,1,6.21,13.71Zm2.56-3.48a5.3,5.3,0,0,0,.94-3.37,5.28,5.28,0,0,0-.94-3.37,3.08,3.08,0,0,0-2.56-1.2A3.13,3.13,0,0,0,3.65,3.48a5.25,5.25,0,0,0-1,3.38,5.24,5.24,0,0,0,1,3.37,3.13,3.13,0,0,0,2.56,1.19A3.1,3.1,0,0,0,8.77,10.23Z" fill="#ff7900"/><path d="M18.9,6.08a2.08,2.08,0,0,0-2,1,3.85,3.85,0,0,0-.29,1.7v4.58H14.06V3.77h2.39V5.44a5.16,5.16,0,0,1,1-1.31,2.77,2.77,0,0,1,1.83-.59h.33V6.13l-.42,0Z" fill="#ff7900"/><path d="M21.25,4.81a4.07,4.07,0,0,1,3.41-1.27,6,6,0,0,1,2.8.63,2.39,2.39,0,0,1,1.22,2.35v4.4c0,.3,0,.67,0,1.1a1.36,1.36,0,0,0,.14.67.91.91,0,0,0,.37.29v.37H26.49a2.51,2.51,0,0,1-.16-.54c0-.17,0-.37-.07-.58a5,5,0,0,1-1.19.95,3.61,3.61,0,0,1-1.83.47,3.15,3.15,0,0,1-2.15-.74,2.65,2.65,0,0,1-.85-2.11A2.73,2.73,0,0,1,21.6,8.24a6.15,6.15,0,0,1,2.2-.61l.85-.11a3.88,3.88,0,0,0,1-.22.75.75,0,0,0,.53-.71.83.83,0,0,0-.41-.81,2.52,2.52,0,0,0-1.2-.23A1.55,1.55,0,0,0,23.32,6a1.82,1.82,0,0,0-.36.88H20.55A3.63,3.63,0,0,1,21.25,4.81Zm1.86,6.73a1.36,1.36,0,0,0,.87.29,2.63,2.63,0,0,0,1.49-.47,2,2,0,0,0,.7-1.74V8.69a2.69,2.69,0,0,1-.48.24,3.73,3.73,0,0,1-.66.18l-.56.1a3.71,3.71,0,0,0-1.14.34,1.17,1.17,0,0,0-.58,1.07A1.11,1.11,0,0,0,23.11,11.54Z" fill="#ff7900"/><path d="M35.21,5.62a1.76,1.76,0,0,0-1.75,1.09,3.77,3.77,0,0,0-.24,1.46v5.18h-2.5V3.79h2.42v1.4a4.32,4.32,0,0,1,.91-1.07,3.23,3.23,0,0,1,2-.58,3.69,3.69,0,0,1,2.43.78,3.17,3.17,0,0,1,1,2.58v6.45H36.82V7.52a2.75,2.75,0,0,0-.2-1.16A1.44,1.44,0,0,0,35.21,5.62Z" fill="#ff7900"/><path d="M44.21,15a2.1,2.1,0,0,0,1.36.34,1.83,1.83,0,0,0,1.81-.9,4.59,4.59,0,0,0,.3-2V11.9a3,3,0,0,1-.77.92,3.14,3.14,0,0,1-1.95.57A3.66,3.66,0,0,1,42,12.1a5.24,5.24,0,0,1-1.11-3.51A5.9,5.9,0,0,1,42,5a3.5,3.5,0,0,1,3-1.46,3.46,3.46,0,0,1,1.26.22,3,3,0,0,1,1.47,1.39V3.77h2.44v9.09a5,5,0,0,1-.63,2.79q-1.06,1.62-4.11,1.62a5.65,5.65,0,0,1-3-.72,2.66,2.66,0,0,1-1.28-2.15h2.73A1.12,1.12,0,0,0,44.21,15Zm-.42-4.95a1.83,1.83,0,0,0,1.82,1.21,1.94,1.94,0,0,0,1.49-.66,3.09,3.09,0,0,0,.61-2.11,3.28,3.28,0,0,0-.58-2.08,1.89,1.89,0,0,0-1.54-.71A1.81,1.81,0,0,0,43.77,7,4.31,4.31,0,0,0,43.5,8.6,3.65,3.65,0,0,0,43.79,10.08Z" fill="#ff7900"/><path d="M60.5,10.54a3.21,3.21,0,0,1-.89,1.73,4.35,4.35,0,0,1-3.44,1.4,4.89,4.89,0,0,1-3.23-1.18,4.76,4.76,0,0,1-1.4-3.83A5.35,5.35,0,0,1,52.8,4.84a4.34,4.34,0,0,1,3.28-1.32A5.16,5.16,0,0,1,58.23,4a3.71,3.71,0,0,1,1.58,1.42,4.76,4.76,0,0,1,.73,2,12.17,12.17,0,0,1,.08,1.89H54.06a2.4,2.4,0,0,0,.91,2,2.14,2.14,0,0,0,1.25.36,1.8,1.8,0,0,0,1.25-.44,2,2,0,0,0,.47-.66ZM58,7.6a2.2,2.2,0,0,0-.6-1.51,1.88,1.88,0,0,0-1.34-.51,1.69,1.69,0,0,0-1.35.55,2.67,2.67,0,0,0-.6,1.47Z" fill="#ff7900"/><path d="M72.66,13.35H67.08V.4h5.58a6.66,6.66,0,0,1,2,.28,4.23,4.23,0,0,1,2.2,1.64,5.69,5.69,0,0,1,.93,2.09A10.33,10.33,0,0,1,78,6.56a8.59,8.59,0,0,1-1,4.37A4.7,4.7,0,0,1,72.66,13.35Zm2-9.65a2.64,2.64,0,0,0-2.47-1.05h-2.5V11.1h2.5a2.7,2.7,0,0,0,2.67-1.89,6.76,6.76,0,0,0,.41-2.47A6.14,6.14,0,0,0,74.68,3.7Z"/><path d="M82.26.32V2.63H79.72V.32Zm0,3.45v9.58H79.72V3.77Z"/><path d="M87.21,15a2.1,2.1,0,0,0,1.36.34,1.83,1.83,0,0,0,1.81-.9,4.59,4.59,0,0,0,.3-2V11.9a3,3,0,0,1-.77.92,3.13,3.13,0,0,1-1.94.57,3.68,3.68,0,0,1-3-1.29,5.24,5.24,0,0,1-1.11-3.51A5.9,5.9,0,0,1,85,5a3.51,3.51,0,0,1,3-1.46,3.46,3.46,0,0,1,1.26.22,3,3,0,0,1,1.48,1.39V3.77h2.43v9.09a5.13,5.13,0,0,1-.62,2.79c-.72,1.08-2.09,1.62-4.12,1.62a5.59,5.59,0,0,1-3-.72,2.65,2.65,0,0,1-1.29-2.15h2.73A1.12,1.12,0,0,0,87.21,15Zm-.42-4.95a1.83,1.83,0,0,0,1.83,1.21,1.93,1.93,0,0,0,1.48-.66,3,3,0,0,0,.61-2.11,3.22,3.22,0,0,0-.58-2.08,1.89,1.89,0,0,0-1.54-.71A1.81,1.81,0,0,0,86.77,7a4.32,4.32,0,0,0-.26,1.63A3.65,3.65,0,0,0,86.79,10.08Z"/><path d="M97.89.32V2.63H95.35V.32Zm0,3.45v9.58H95.35V3.77Z"/><path d="M104.52,11.57v1.87l-1.18,0a3.21,3.21,0,0,1-2.43-.61,1.85,1.85,0,0,1-.42-1.33V5.64H99.15V3.86h1.34V1.19H103V3.86h1.55V5.64H103v5.07a1.13,1.13,0,0,0,.15.73c.1.1.4.14.91.14h.49Z"/><path d="M106.31,4.81a4.08,4.08,0,0,1,3.41-1.27,6,6,0,0,1,2.8.63,2.39,2.39,0,0,1,1.22,2.35v4.4c0,.3,0,.67,0,1.1a1.46,1.46,0,0,0,.15.67.79.79,0,0,0,.37.29v.37h-2.73a3.24,3.24,0,0,1-.16-.54c0-.17,0-.37-.07-.58a5,5,0,0,1-1.19.95,3.61,3.61,0,0,1-1.83.47,3.17,3.17,0,0,1-2.15-.74,2.65,2.65,0,0,1-.85-2.11,2.74,2.74,0,0,1,1.37-2.56,6.09,6.09,0,0,1,2.19-.61l.85-.11a3.88,3.88,0,0,0,1-.22.74.74,0,0,0,.53-.71.83.83,0,0,0-.41-.81,2.51,2.51,0,0,0-1.19-.23,1.56,1.56,0,0,0-1.26.44,1.81,1.81,0,0,0-.35.88h-2.42A3.71,3.71,0,0,1,106.31,4.81Zm1.87,6.73a1.31,1.31,0,0,0,.86.29,2.6,2.6,0,0,0,1.49-.47,2.06,2.06,0,0,0,.71-1.74V8.69a2.69,2.69,0,0,1-.48.24,4.15,4.15,0,0,1-.67.18l-.56.1a3.54,3.54,0,0,0-1.13.34,1.15,1.15,0,0,0-.58,1.07A1.11,1.11,0,0,0,108.18,11.54Z"/><path d="M115.8.4h2.51v13H115.8Z"/><path d="M134.73,12.38A5.24,5.24,0,0,1,131,13.71a5.6,5.6,0,0,1-4.39-1.79A7.16,7.16,0,0,1,125,7a7.12,7.12,0,0,1,1.82-5.23,5.4,5.4,0,0,1,4-1.6,5.46,5.46,0,0,1,4.79,2.14,4.71,4.71,0,0,1,.89,2.42h-2.71a3.71,3.71,0,0,0-.67-1.41,3,3,0,0,0-4.52.35A5.73,5.73,0,0,0,127.8,7a5,5,0,0,0,.9,3.27A2.85,2.85,0,0,0,131,11.37a2.62,2.62,0,0,0,2.17-.93,4,4,0,0,0,.68-1.5h2.69A5.85,5.85,0,0,1,134.73,12.38Z"/><path d="M146.39,10.54a3.14,3.14,0,0,1-.89,1.73,4.35,4.35,0,0,1-3.44,1.4,4.89,4.89,0,0,1-3.23-1.18,4.76,4.76,0,0,1-1.4-3.83,5.31,5.31,0,0,1,1.27-3.82A4.32,4.32,0,0,1,142,3.52a5.13,5.13,0,0,1,2.15.44,3.79,3.79,0,0,1,1.59,1.42,4.89,4.89,0,0,1,.72,2,11,11,0,0,1,.08,1.89H140a2.37,2.37,0,0,0,.9,2,2.14,2.14,0,0,0,1.25.36,1.82,1.82,0,0,0,1.26-.44,2.14,2.14,0,0,0,.46-.66ZM143.91,7.6a2.2,2.2,0,0,0-.6-1.51A1.88,1.88,0,0,0,142,5.58a1.69,1.69,0,0,0-1.35.55A2.67,2.67,0,0,0,140,7.6Z"/><path d="M152.49,5.62a1.73,1.73,0,0,0-1.74,1.09,3.58,3.58,0,0,0-.25,1.46v5.18H148V3.79h2.42v1.4a4.32,4.32,0,0,1,.91-1.07,3.23,3.23,0,0,1,2-.58,3.69,3.69,0,0,1,2.43.78,3.17,3.17,0,0,1,.95,2.58v6.45H154.1V7.52a2.6,2.6,0,0,0-.2-1.16A1.43,1.43,0,0,0,152.49,5.62Z"/><path d="M163.19,11.57v1.87l-1.19,0a3.22,3.22,0,0,1-2.43-.61,1.85,1.85,0,0,1-.42-1.33V5.64h-1.33V3.86h1.33V1.19h2.48V3.86h1.56V5.64h-1.56v5.07a1.13,1.13,0,0,0,.15.73c.1.1.4.14.91.14h.5Z"/><path d="M172.82,10.54a3.21,3.21,0,0,1-.89,1.73,4.36,4.36,0,0,1-3.45,1.4,4.87,4.87,0,0,1-3.22-1.18,4.76,4.76,0,0,1-1.4-3.83,5.35,5.35,0,0,1,1.26-3.82,4.32,4.32,0,0,1,3.27-1.32,5.18,5.18,0,0,1,2.16.44,3.77,3.77,0,0,1,1.58,1.42,4.9,4.9,0,0,1,.73,2,13.58,13.58,0,0,1,.08,1.89h-6.56a2.4,2.4,0,0,0,.91,2,2.12,2.12,0,0,0,1.25.36,1.8,1.8,0,0,0,1.25-.44,2.15,2.15,0,0,0,.47-.66ZM170.34,7.6a2.25,2.25,0,0,0-.6-1.51,1.91,1.91,0,0,0-1.35-.51,1.65,1.65,0,0,0-1.34.55,2.75,2.75,0,0,0-.61,1.47Z"/><path d="M179.23,6.08a2.07,2.07,0,0,0-2,1,3.71,3.71,0,0,0-.29,1.7v4.58h-2.53V3.77h2.39V5.44a5.66,5.66,0,0,1,1-1.31,2.77,2.77,0,0,1,1.83-.59H180V6.13l-.43,0Z"/></svg>